<?xml version="1.0" standalone="no"?><svg xmlns:xlink="http://www.w3.org/1999/xlink" xmlns="http://www.w3.org/2000/svg" viewBox="0 0 1000 312.5" preserveAspectRatio="xMaxYMax slice"><g transform="scale(0.46511627906976744)"><rect x="0" y="0" width="2150" height="671.875" fill="#ffffff"/><rect x="0" y="0" width="134.38" height="134.38" fill="#cce3ff"/><polygon points="134.38,0 134.38,134.38 0,134.38" fill="#5ea6fe"/><rect x="134.38" y="0" width="134.38" height="134.38" fill="#4c9cfe"/><polygon points="134.38,0 268.76,134.38 134.38,134.38" fill="#84bbfe"/><rect x="268.75" y="0" width="134.38" height="134.38" fill="#a3ccff"/><polygon points="268.75,0 403.13,0 403.13,134.38" fill="#a6ceff"/><rect x="403.13" y="0" width="134.38" height="134.38" fill="#83bafe"/><polygon points="403.13,0 537.51,134.38 403.13,134.38" fill="#7fb8fe"/><rect x="537.5" y="0" width="134.375" height="134.375" fill="#ffffff"/><rect x="537.5" y="0" width="67.19" height="67.19" fill="#e3efff"/><polygon points="537.5,0 604.69,67.19 537.5,67.19" fill="#489afe"/><rect x="604.69" y="0" width="67.19" height="67.19" fill="#59a3fe"/><polygon points="604.69,0 671.8800000000001,0 604.69,67.19" fill="#8fc1fe"/><rect x="537.5" y="67.19" width="67.19" height="67.19" fill="#f4f9ff"/><polygon points="537.5,67.19 604.69,134.38 537.5,134.38" fill="#76b3fe"/><rect x="604.69" y="67.19" width="67.19" height="67.19" fill="#e7f2ff"/><polygon points="604.69,67.19 671.8800000000001,67.19 671.8800000000001,134.38" fill="#f4f9ff"/><rect x="671.88" y="0" width="134.38" height="134.38" fill="#cce3ff"/><polygon points="806.26,0 806.26,134.38 671.88,134.38" fill="#c8e1ff"/><rect x="806.25" y="0" width="134.375" height="134.375" fill="#ffffff"/><rect x="806.25" y="0" width="67.19" height="67.19" fill="#bedbff"/><polygon points="806.25,0 873.44,0 873.44,67.19" fill="#cee4ff"/><rect x="873.44" y="0" width="67.19" height="67.19" fill="#4e9dfe"/><polygon points="940.6300000000001,0 940.6300000000001,67.19 873.44,67.19" fill="#a1cbfe"/><rect x="806.25" y="67.19" width="67.19" height="67.19" fill="#f6faff"/><polygon points="806.25,67.19 873.44,67.19 806.25,134.38" fill="#a7ceff"/><rect x="873.44" y="67.19" width="67.19" height="67.19" fill="#ebf4ff"/><polygon points="873.44,67.19 940.6300000000001,67.19 873.44,134.38" fill="#9fcafe"/><rect x="940.63" y="0" width="134.38" height="134.38" fill="#6caefe"/><polygon points="940.63,0 1075.01,0 1075.01,134.38" fill="#7bb6fe"/><rect x="1075" y="0" width="134.38" height="134.38" fill="#e1eeff"/><polygon points="1075,0 1209.38,134.38 1075,134.38" fill="#bfdcff"/><rect x="1209.375" y="0" width="134.375" height="134.375" fill="#ffffff"/><rect x="1209.38" y="0" width="67.19" height="67.19" fill="#d4e7ff"/><polygon points="1276.5700000000002,0 1276.5700000000002,67.19 1209.38,67.19" fill="#a1cbfe"/><rect x="1276.56" y="0" width="67.19" height="67.19" fill="#4598fe"/><polygon points="1276.56,0 1343.75,67.19 1276.56,67.19" fill="#53a0fe"/><rect x="1209.38" y="67.19" width="67.19" height="67.19" fill="#5fa6fe"/><polygon points="1209.38,67.19 1276.5700000000002,67.19 1209.38,134.38" fill="#a0cafe"/><rect x="1276.56" y="67.19" width="67.19" height="67.19" fill="#eaf4ff"/><polygon points="1276.56,67.19 1343.75,134.38 1276.56,134.38" fill="#a8cfff"/><rect x="1343.75" y="0" width="134.38" height="134.38" fill="#add1ff"/><polygon points="1343.75,0 1478.13,134.38 1343.75,134.38" fill="#489afe"/><rect x="1478.125" y="0" width="134.375" height="134.375" fill="#ffffff"/><rect x="1478.13" y="0" width="67.19" height="67.19" fill="#4e9dfe"/><polygon points="1478.13,0 1545.3200000000002,0 1545.3200000000002,67.19" fill="#54a1fe"/><rect x="1545.31" y="0" width="67.19" height="67.19" fill="#59a3fe"/><polygon points="1545.31,0 1612.5,0 1612.5,67.19" fill="#6daefe"/><rect x="1478.13" y="67.19" width="67.19" height="67.19" fill="#e5f1ff"/><polygon points="1478.13,67.19 1545.3200000000002,134.38 1478.13,134.38" fill="#96c5fe"/><rect x="1545.31" y="67.19" width="67.19" height="67.19" fill="#cde3ff"/><polygon points="1545.31,67.19 1612.5,67.19 1612.5,134.38" fill="#b1d4ff"/><rect x="1612.5" y="0" width="134.38" height="134.38" fill="#73b2fe"/><polygon points="1612.5,0 1746.88,0 1612.5,134.38" fill="#7fb8fe"/><rect x="1746.88" y="0" width="134.38" height="134.38" fill="#7cb6fe"/><polygon points="1746.88,0 1881.2600000000002,0 1746.88,134.38" fill="#a3ccff"/><rect x="1881.25" y="0" width="134.38" height="134.38" fill="#b8d8ff"/><polygon points="2015.63,0 2015.63,134.38 1881.25,134.38" fill="#84bbfe"/><rect x="2015.625" y="0" width="134.375" height="134.375" fill="#ffffff"/><rect x="2015.63" y="0" width="67.19" height="67.19" fill="#d8e9ff"/><polygon points="2015.63,0 2082.82,0 2015.63,67.19" fill="#cce3ff"/><rect x="2082.81" y="0" width="67.19" height="67.19" fill="#8dc0fe"/><polygon points="2082.81,0 2150,67.19 2082.81,67.19" fill="#8abefe"/><rect x="2015.63" y="67.19" width="67.19" height="67.19" fill="#dcecff"/><polygon points="2082.82,67.19 2082.82,134.38 2015.63,134.38" fill="#a9d0ff"/><rect x="2082.81" y="67.19" width="67.19" height="67.19" fill="#cbe2ff"/><polygon points="2150,67.19 2150,134.38 2082.81,134.38" fill="#b7d7ff"/><rect x="0" y="134.38" width="134.38" height="134.38" fill="#5ba4fe"/><polygon points="0,134.38 134.38,268.76 0,268.76" fill="#f1f7ff"/><rect x="134.375" y="134.375" width="134.375" height="134.375" fill="#ffffff"/><rect x="134.38" y="134.38" width="67.19" height="67.19" fill="#cee4ff"/><polygon points="134.38,134.38 201.57,201.57 134.38,201.57" fill="#76b3fe"/><rect x="201.56" y="134.38" width="67.19" height="67.19" fill="#b2d4ff"/><polygon points="201.56,134.38 268.75,134.38 268.75,201.57" fill="#a0cafe"/><rect x="134.38" y="201.56" width="67.19" height="67.19" fill="#a4cdff"/><polygon points="201.57,201.56 201.57,268.75 134.38,268.75" fill="#7bb6fe"/><rect x="201.56" y="201.56" width="67.19" height="67.19" fill="#81bafe"/><polygon points="268.75,201.56 268.75,268.75 201.56,268.75" fill="#a2cbff"/><rect x="268.75" y="134.375" width="134.375" height="134.375" fill="#ffffff"/><rect x="268.75" y="134.38" width="67.19" height="67.19" fill="#c9e1ff"/><polygon points="268.75,134.38 335.94,134.38 335.94,201.57" fill="#80b9fe"/><rect x="335.94" y="134.38" width="67.19" height="67.19" fill="#4699fe"/><polygon points="403.13,134.38 403.13,201.57 335.94,201.57" fill="#499afe"/><rect x="268.75" y="201.56" width="67.19" height="67.19" fill="#aad0ff"/><polygon points="268.75,201.56 335.94,201.56 335.94,268.75" fill="#489afe"/><rect x="335.94" y="201.56" width="67.19" height="67.19" fill="#80b9fe"/><polygon points="335.94,201.56 403.13,201.56 335.94,268.75" fill="#9bc8fe"/><rect x="403.13" y="134.38" width="134.38" height="134.38" fill="#ebf4ff"/><polygon points="537.51,134.38 537.51,268.76 403.13,268.76" fill="#cde4ff"/><rect x="537.5" y="134.375" width="134.375" height="134.375" fill="#ffffff"/><rect x="537.5" y="134.38" width="67.19" height="67.19" fill="#79b5fe"/><polygon points="537.5,134.38 604.69,134.38 537.5,201.57" fill="#b3d5ff"/><rect x="604.69" y="134.38" width="67.19" height="67.19" fill="#55a1fe"/><polygon points="604.69,134.38 671.8800000000001,134.38 604.69,201.57" fill="#afd3ff"/><rect x="537.5" y="201.56" width="67.19" height="67.19" fill="#4b9bfe"/><polygon points="537.5,201.56 604.69,201.56 604.69,268.75" fill="#8bbffe"/><rect x="604.69" y="201.56" width="67.19" height="67.19" fill="#6aacfe"/><polygon points="604.69,201.56 671.8800000000001,201.56 604.69,268.75" fill="#8bbffe"/><rect x="671.875" y="134.375" width="134.375" height="134.375" fill="#ffffff"/><rect x="671.88" y="134.38" width="67.19" height="67.19" fill="#76b3fe"/><polygon points="671.88,134.38 739.0699999999999,201.57 671.88,201.57" fill="#c3deff"/><rect x="739.06" y="134.38" width="67.19" height="67.19" fill="#fcfdff"/><polygon points="739.06,134.38 806.25,134.38 806.25,201.57" fill="#dbebff"/><rect x="671.88" y="201.56" width="67.19" height="67.19" fill="#499afe"/><polygon points="671.88,201.56 739.0699999999999,201.56 671.88,268.75" fill="#fcfdff"/><rect x="739.06" y="201.56" width="67.19" height="67.19" fill="#d5e8ff"/><polygon points="739.06,201.56 806.25,201.56 739.06,268.75" fill="#cde3ff"/><rect x="806.25" y="134.375" width="134.375" height="134.375" fill="#ffffff"/><rect x="806.25" y="134.38" width="67.19" height="67.19" fill="#74b2fe"/><polygon points="873.44,134.38 873.44,201.57 806.25,201.57" fill="#d9eaff"/><rect x="873.44" y="134.38" width="67.19" height="67.19" fill="#4498fe"/><polygon points="873.44,134.38 940.6300000000001,134.38 873.44,201.57" fill="#499afe"/><rect x="806.25" y="201.56" width="67.19" height="67.19" fill="#97c5fe"/><polygon points="806.25,201.56 873.44,268.75 806.25,268.75" fill="#529ffe"/><rect x="873.44" y="201.56" width="67.19" height="67.19" fill="#e6f1ff"/><polygon points="873.44,201.56 940.6300000000001,201.56 873.44,268.75" fill="#97c5fe"/><rect x="940.625" y="134.375" width="134.375" height="134.375" fill="#ffffff"/><rect x="940.63" y="134.38" width="67.19" height="67.19" fill="#61a7fe"/><polygon points="940.63,134.38 1007.8199999999999,201.57 940.63,201.57" fill="#d4e7ff"/><rect x="1007.81" y="134.38" width="67.19" height="67.19" fill="#83bafe"/><polygon points="1075,134.38 1075,201.57 1007.81,201.57" fill="#bddbff"/><rect x="940.63" y="201.56" width="67.19" height="67.19" fill="#bddbff"/><polygon points="940.63,201.56 1007.8199999999999,201.56 940.63,268.75" fill="#65aafe"/><rect x="1007.81" y="201.56" width="67.19" height="67.19" fill="#b8d8ff"/><polygon points="1007.81,201.56 1075,268.75 1007.81,268.75" fill="#bcdaff"/><rect x="1075" y="134.375" width="134.375" height="134.375" fill="#ffffff"/><rect x="1075" y="134.38" width="67.19" height="67.19" fill="#59a3fe"/><polygon points="1075,134.38 1142.19,201.57 1075,201.57" fill="#c3deff"/><rect x="1142.19" y="134.38" width="67.19" height="67.19" fill="#7fb8fe"/><polygon points="1209.38,134.38 1209.38,201.57 1142.19,201.57" fill="#64a9fe"/><rect x="1075" y="201.56" width="67.19" height="67.19" fill="#9fcafe"/><polygon points="1142.19,201.56 1142.19,268.75 1075,268.75" fill="#fafcff"/><rect x="1142.19" y="201.56" width="67.19" height="67.19" fill="#add2ff"/><polygon points="1209.38,201.56 1209.38,268.75 1142.19,268.75" fill="#a2ccff"/><rect x="1209.38" y="134.38" width="134.38" height="134.38" fill="#83bbfe"/><polygon points="1209.38,134.38 1343.7600000000002,268.76 1209.38,268.76" fill="#b8d8ff"/><rect x="1343.75" y="134.375" width="134.375" height="134.375" fill="#ffffff"/><rect x="1343.75" y="134.38" width="67.19" height="67.19" fill="#4799fe"/><polygon points="1410.94,134.38 1410.94,201.57 1343.75,201.57" fill="#6daefe"/><rect x="1410.94" y="134.38" width="67.19" height="67.19" fill="#bedbff"/><polygon points="1410.94,134.38 1478.13,201.57 1410.94,201.57" fill="#e6f1ff"/><rect x="1343.75" y="201.56" width="67.19" height="67.19" fill="#65aafe"/><polygon points="1343.75,201.56 1410.94,201.56 1410.94,268.75" fill="#ddecff"/><rect x="1410.94" y="201.56" width="67.19" height="67.19" fill="#c1ddff"/><polygon points="1410.94,201.56 1478.13,201.56 1410.94,268.75" fill="#98c6fe"/><rect x="1478.125" y="134.375" width="134.375" height="134.375" fill="#ffffff"/><rect x="1478.13" y="134.38" width="67.19" height="67.19" fill="#bfdbff"/><polygon points="1478.13,134.38 1545.3200000000002,134.38 1478.13,201.57" fill="#fcfdff"/><rect x="1545.31" y="134.38" width="67.19" height="67.19" fill="#eef5ff"/><polygon points="1545.31,134.38 1612.5,134.38 1612.5,201.57" fill="#d1e5ff"/><rect x="1478.13" y="201.56" width="67.19" height="67.19" fill="#dcecff"/><polygon points="1478.13,201.56 1545.3200000000002,201.56 1545.3200000000002,268.75" fill="#d7e9ff"/><rect x="1545.31" y="201.56" width="67.19" height="67.19" fill="#8abefe"/><polygon points="1545.31,201.56 1612.5,268.75 1545.31,268.75" fill="#7fb8fe"/><rect x="1612.5" y="134.38" width="134.38" height="134.38" fill="#daeaff"/><polygon points="1612.5,134.38 1746.88,134.38 1746.88,268.76" fill="#fbfdff"/><rect x="1746.88" y="134.38" width="134.38" height="134.38" fill="#77b4fe"/><polygon points="1746.88,134.38 1881.2600000000002,268.76 1746.88,268.76" fill="#e5f1ff"/><rect x="1881.25" y="134.375" width="134.375" height="134.375" fill="#ffffff"/><rect x="1881.25" y="134.38" width="67.19" height="67.19" fill="#cce3ff"/><polygon points="1948.44,134.38 1948.44,201.57 1881.25,201.57" fill="#4b9bfe"/><rect x="1948.44" y="134.38" width="67.19" height="67.19" fill="#4f9efe"/><polygon points="1948.44,134.38 2015.63,134.38 2015.63,201.57" fill="#eef5ff"/><rect x="1881.25" y="201.56" width="67.19" height="67.19" fill="#ddecff"/><polygon points="1881.25,201.56 1948.44,201.56 1881.25,268.75" fill="#70b0fe"/><rect x="1948.44" y="201.56" width="67.19" height="67.19" fill="#c3deff"/><polygon points="1948.44,201.56 2015.63,201.56 1948.44,268.75" fill="#63a9fe"/><rect x="2015.625" y="134.375" width="134.375" height="134.375" fill="#ffffff"/><rect x="2015.63" y="134.38" width="67.19" height="67.19" fill="#daebff"/><polygon points="2015.63,134.38 2082.82,134.38 2082.82,201.57" fill="#fbfdff"/><rect x="2082.81" y="134.38" width="67.19" height="67.19" fill="#f9fcff"/><polygon points="2082.81,134.38 2150,134.38 2082.81,201.57" fill="#b3d5ff"/><rect x="2015.63" y="201.56" width="67.19" height="67.19" fill="#509efe"/><polygon points="2015.63,201.56 2082.82,268.75 2015.63,268.75" fill="#a1cbfe"/><rect x="2082.81" y="201.56" width="67.19" height="67.19" fill="#5ea6fe"/><polygon points="2082.81,201.56 2150,201.56 2150,268.75" fill="#ebf4ff"/><rect x="0" y="268.75" width="134.375" height="134.375" fill="#ffffff"/><rect x="0" y="268.75" width="67.19" height="67.19" fill="#b3d5ff"/><polygon points="0,268.75 67.19,268.75 0,335.94" fill="#63a9fe"/><rect x="67.19" y="268.75" width="67.19" height="67.19" fill="#bedbff"/><polygon points="134.38,268.75 134.38,335.94 67.19,335.94" fill="#cee4ff"/><rect x="0" y="335.94" width="67.19" height="67.19" fill="#b2d4ff"/><polygon points="0,335.94 67.19,403.13 0,403.13" fill="#c6dfff"/><rect x="67.19" y="335.94" width="67.19" height="67.19" fill="#c2ddff"/><polygon points="67.19,335.94 134.38,335.94 67.19,403.13" fill="#5ba4fe"/><rect x="134.38" y="268.75" width="134.38" height="134.38" fill="#79b5fe"/><polygon points="268.76,268.75 268.76,403.13 134.38,403.13" fill="#77b4fe"/><rect x="268.75" y="268.75" width="134.375" height="134.375" fill="#ffffff"/><rect x="268.75" y="268.75" width="67.19" height="67.19" fill="#95c4fe"/><polygon points="268.75,268.75 335.94,268.75 268.75,335.94" fill="#cae1ff"/><rect x="335.94" y="268.75" width="67.19" height="67.19" fill="#add2ff"/><polygon points="403.13,268.75 403.13,335.94 335.94,335.94" fill="#c5dfff"/><rect x="268.75" y="335.94" width="67.19" height="67.19" fill="#e6f1ff"/><polygon points="335.94,335.94 335.94,403.13 268.75,403.13" fill="#91c2fe"/><rect x="335.94" y="335.94" width="67.19" height="67.19" fill="#d5e8ff"/><polygon points="335.94,335.94 403.13,335.94 335.94,403.13" fill="#8bbffe"/><rect x="403.13" y="268.75" width="134.38" height="134.38" fill="#4d9dfe"/><polygon points="537.51,268.75 537.51,403.13 403.13,403.13" fill="#98c6fe"/><rect x="537.5" y="268.75" width="134.375" height="134.375" fill="#ffffff"/><rect x="537.5" y="268.75" width="67.19" height="67.19" fill="#f9fbff"/><polygon points="537.5,268.75 604.69,335.94 537.5,335.94" fill="#6aacfe"/><rect x="604.69" y="268.75" width="67.19" height="67.19" fill="#59a3fe"/><polygon points="671.8800000000001,268.75 671.8800000000001,335.94 604.69,335.94" fill="#e1efff"/><rect x="537.5" y="335.94" width="67.19" height="67.19" fill="#fafcff"/><polygon points="537.5,335.94 604.69,403.13 537.5,403.13" fill="#62a8fe"/><rect x="604.69" y="335.94" width="67.19" height="67.19" fill="#81b9fe"/><polygon points="671.8800000000001,335.94 671.8800000000001,403.13 604.69,403.13" fill="#7ab5fe"/><rect x="671.88" y="268.75" width="134.38" height="134.38" fill="#54a1fe"/><polygon points="671.88,268.75 806.26,403.13 671.88,403.13" fill="#9ac7fe"/><rect x="806.25" y="268.75" width="134.38" height="134.38" fill="#bbdaff"/><polygon points="940.63,268.75 940.63,403.13 806.25,403.13" fill="#f6faff"/><rect x="940.625" y="268.75" width="134.375" height="134.375" fill="#ffffff"/><rect x="940.63" y="268.75" width="67.19" height="67.19" fill="#4f9efe"/><polygon points="940.63,268.75 1007.8199999999999,268.75 1007.8199999999999,335.94" fill="#b4d6ff"/><rect x="1007.81" y="268.75" width="67.19" height="67.19" fill="#a5cdff"/><polygon points="1075,268.75 1075,335.94 1007.81,335.94" fill="#e9f3ff"/><rect x="940.63" y="335.94" width="67.19" height="67.19" fill="#ecf5ff"/><polygon points="940.63,335.94 1007.8199999999999,403.13 940.63,403.13" fill="#f4f9ff"/><rect x="1007.81" y="335.94" width="67.19" height="67.19" fill="#f4f9ff"/><polygon points="1007.81,335.94 1075,403.13 1007.81,403.13" fill="#4e9dfe"/><rect x="1075" y="268.75" width="134.38" height="134.38" fill="#4598fe"/><polygon points="1075,268.75 1209.38,268.75 1209.38,403.13" fill="#bddaff"/><rect x="1209.38" y="268.75" width="134.38" height="134.38" fill="#c1ddff"/><polygon points="1209.38,268.75 1343.7600000000002,268.75 1343.7600000000002,403.13" fill="#97c6fe"/><rect x="1343.75" y="268.75" width="134.375" height="134.375" fill="#ffffff"/><rect x="1343.75" y="268.75" width="67.19" height="67.19" fill="#b2d4ff"/><polygon points="1343.75,268.75 1410.94,268.75 1343.75,335.94" fill="#82bafe"/><rect x="1410.94" y="268.75" width="67.19" height="67.19" fill="#53a0fe"/><polygon points="1410.94,268.75 1478.13,268.75 1478.13,335.94" fill="#4699fe"/><rect x="1343.75" y="335.94" width="67.19" height="67.19" fill="#b3d5ff"/><polygon points="1343.75,335.94 1410.94,335.94 1343.75,403.13" fill="#85bbfe"/><rect x="1410.94" y="335.94" width="67.19" height="67.19" fill="#add2ff"/><polygon points="1410.94,335.94 1478.13,335.94 1410.94,403.13" fill="#94c4fe"/><rect x="1478.125" y="268.75" width="134.375" height="134.375" fill="#ffffff"/><rect x="1478.13" y="268.75" width="67.19" height="67.19" fill="#62a8fe"/><polygon points="1478.13,268.75 1545.3200000000002,268.75 1545.3200000000002,335.94" fill="#53a0fe"/><rect x="1545.31" y="268.75" width="67.19" height="67.19" fill="#fcfdff"/><polygon points="1545.31,268.75 1612.5,335.94 1545.31,335.94" fill="#e0eeff"/><rect x="1478.13" y="335.94" width="67.19" height="67.19" fill="#95c5fe"/><polygon points="1478.13,335.94 1545.3200000000002,335.94 1478.13,403.13" fill="#6badfe"/><rect x="1545.31" y="335.94" width="67.19" height="67.19" fill="#f7fbff"/><polygon points="1545.31,335.94 1612.5,335.94 1545.31,403.13" fill="#71b1fe"/><rect x="1612.5" y="268.75" width="134.38" height="134.38" fill="#80b9fe"/><polygon points="1612.5,268.75 1746.88,268.75 1746.88,403.13" fill="#d8eaff"/><rect x="1746.88" y="268.75" width="134.38" height="134.38" fill="#9dc9fe"/><polygon points="1746.88,268.75 1881.2600000000002,403.13 1746.88,403.13" fill="#c8e0ff"/><rect x="1881.25" y="268.75" width="134.375" height="134.375" fill="#ffffff"/><rect x="1881.25" y="268.75" width="67.19" height="67.19" fill="#58a2fe"/><polygon points="1948.44,268.75 1948.44,335.94 1881.25,335.94" fill="#c6dfff"/><rect x="1948.44" y="268.75" width="67.19" height="67.19" fill="#4e9dfe"/><polygon points="1948.44,268.75 2015.63,268.75 1948.44,335.94" fill="#e1eeff"/><rect x="1881.25" y="335.94" width="67.19" height="67.19" fill="#5fa6fe"/><polygon points="1881.25,335.94 1948.44,403.13 1881.25,403.13" fill="#8fc1fe"/><rect x="1948.44" y="335.94" width="67.19" height="67.19" fill="#e5f1ff"/><polygon points="1948.44,335.94 2015.63,335.94 1948.44,403.13" fill="#d3e7ff"/><rect x="2015.625" y="268.75" width="134.375" height="134.375" fill="#ffffff"/><rect x="2015.63" y="268.75" width="67.19" height="67.19" fill="#d5e8ff"/><polygon points="2015.63,268.75 2082.82,268.75 2015.63,335.94" fill="#499afe"/><rect x="2082.81" y="268.75" width="67.19" height="67.19" fill="#5aa4fe"/><polygon points="2150,268.75 2150,335.94 2082.81,335.94" fill="#a9cfff"/><rect x="2015.63" y="335.94" width="67.19" height="67.19" fill="#64a9fe"/><polygon points="2082.82,335.94 2082.82,403.13 2015.63,403.13" fill="#97c6fe"/><rect x="2082.81" y="335.94" width="67.19" height="67.19" fill="#add2ff"/><polygon points="2082.81,335.94 2150,335.94 2082.81,403.13" fill="#bddbff"/><rect x="0" y="403.13" width="134.38" height="134.38" fill="#87bdfe"/><polygon points="0,403.13 134.38,403.13 0,537.51" fill="#4498fe"/><rect x="134.38" y="403.13" width="134.38" height="134.38" fill="#93c3fe"/><polygon points="134.38,403.13 268.76,403.13 268.76,537.51" fill="#91c2fe"/><rect x="268.75" y="403.125" width="134.375" height="134.375" fill="#ffffff"/><rect x="268.75" y="403.13" width="67.19" height="67.19" fill="#79b5fe"/><polygon points="335.94,403.13 335.94,470.32 268.75,470.32" fill="#cee4ff"/><rect x="335.94" y="403.13" width="67.19" height="67.19" fill="#69acfe"/><polygon points="335.94,403.13 403.13,470.32 335.94,470.32" fill="#53a0fe"/><rect x="268.75" y="470.31" width="67.19" height="67.19" fill="#dbebff"/><polygon points="268.75,470.31 335.94,470.31 335.94,537.5" fill="#83bafe"/><rect x="335.94" y="470.31" width="67.19" height="67.19" fill="#dbebff"/><polygon points="335.94,470.31 403.13,470.31 403.13,537.5" fill="#e6f1ff"/><rect x="403.125" y="403.125" width="134.375" height="134.375" fill="#ffffff"/><rect x="403.13" y="403.13" width="67.19" height="67.19" fill="#82bafe"/><polygon points="403.13,403.13 470.32,470.32 403.13,470.32" fill="#64a9fe"/><rect x="470.31" y="403.13" width="67.19" height="67.19" fill="#72b1fe"/><polygon points="470.31,403.13 537.5,403.13 537.5,470.32" fill="#feffff"/><rect x="403.13" y="470.31" width="67.19" height="67.19" fill="#91c2fe"/><polygon points="403.13,470.31 470.32,470.31 470.32,537.5" fill="#bedbff"/><rect x="470.31" y="470.31" width="67.19" height="67.19" fill="#93c3fe"/><polygon points="470.31,470.31 537.5,537.5 470.31,537.5" fill="#61a8fe"/><rect x="537.5" y="403.125" width="134.375" height="134.375" fill="#ffffff"/><rect x="537.5" y="403.13" width="67.19" height="67.19" fill="#5fa7fe"/><polygon points="537.5,403.13 604.69,470.32 537.5,470.32" fill="#67abfe"/><rect x="604.69" y="403.13" width="67.19" height="67.19" fill="#c5dfff"/><polygon points="604.69,403.13 671.8800000000001,403.13 671.8800000000001,470.32" fill="#9bc8fe"/><rect x="537.5" y="470.31" width="67.19" height="67.19" fill="#4d9cfe"/><polygon points="537.5,470.31 604.69,537.5 537.5,537.5" fill="#79b5fe"/><rect x="604.69" y="470.31" width="67.19" height="67.19" fill="#a6ceff"/><polygon points="604.69,470.31 671.8800000000001,537.5 604.69,537.5" fill="#63a8fe"/><rect x="671.875" y="403.125" width="134.375" height="134.375" fill="#ffffff"/><rect x="671.88" y="403.13" width="67.19" height="67.19" fill="#8cc0fe"/><polygon points="671.88,403.13 739.0699999999999,403.13 739.0699999999999,470.32" fill="#bedbff"/><rect x="739.06" y="403.13" width="67.19" height="67.19" fill="#4c9cfe"/><polygon points="739.06,403.13 806.25,403.13 806.25,470.32" fill="#88bdfe"/><rect x="671.88" y="470.31" width="67.19" height="67.19" fill="#f8fbff"/><polygon points="671.88,470.31 739.0699999999999,470.31 739.0699999999999,537.5" fill="#66aafe"/><rect x="739.06" y="470.31" width="67.19" height="67.19" fill="#59a3fe"/><polygon points="806.25,470.31 806.25,537.5 739.06,537.5" fill="#a6ceff"/><rect x="806.25" y="403.13" width="134.38" height="134.38" fill="#eff6ff"/><polygon points="806.25,403.13 940.63,403.13 806.25,537.51" fill="#6eaffe"/><rect x="940.625" y="403.125" width="134.375" height="134.375" fill="#ffffff"/><rect x="940.63" y="403.13" width="67.19" height="67.19" fill="#eef6ff"/><polygon points="940.63,403.13 1007.8199999999999,403.13 1007.8199999999999,470.32" fill="#85bcfe"/><rect x="1007.81" y="403.13" width="67.19" height="67.19" fill="#529ffe"/><polygon points="1075,403.13 1075,470.32 1007.81,470.32" fill="#bddbff"/><rect x="940.63" y="470.31" width="67.19" height="67.19" fill="#c9e1ff"/><polygon points="940.63,470.31 1007.8199999999999,537.5 940.63,537.5" fill="#aad0ff"/><rect x="1007.81" y="470.31" width="67.19" height="67.19" fill="#95c4fe"/><polygon points="1007.81,470.31 1075,537.5 1007.81,537.5" fill="#61a8fe"/><rect x="1075" y="403.13" width="134.38" height="134.38" fill="#82bafe"/><polygon points="1075,403.13 1209.38,403.13 1075,537.51" fill="#88bdfe"/><rect x="1209.38" y="403.13" width="134.38" height="134.38" fill="#f8fbff"/><polygon points="1209.38,403.13 1343.7600000000002,403.13 1209.38,537.51" fill="#65aafe"/><rect x="1343.75" y="403.13" width="134.38" height="134.38" fill="#a2ccff"/><polygon points="1343.75,403.13 1478.13,403.13 1343.75,537.51" fill="#4799fe"/><rect x="1478.13" y="403.13" width="134.38" height="134.38" fill="#6daefe"/><polygon points="1478.13,403.13 1612.5100000000002,403.13 1478.13,537.51" fill="#c8e0ff"/><rect x="1612.5" y="403.125" width="134.375" height="134.375" fill="#ffffff"/><rect x="1612.5" y="403.13" width="67.19" height="67.19" fill="#d6e8ff"/><polygon points="1612.5,403.13 1679.69,403.13 1679.69,470.32" fill="#90c2fe"/><rect x="1679.69" y="403.13" width="67.19" height="67.19" fill="#96c5fe"/><polygon points="1679.69,403.13 1746.88,470.32 1679.69,470.32" fill="#f3f8ff"/><rect x="1612.5" y="470.31" width="67.19" height="67.19" fill="#70b0fe"/><polygon points="1679.69,470.31 1679.69,537.5 1612.5,537.5" fill="#4598fe"/><rect x="1679.69" y="470.31" width="67.19" height="67.19" fill="#91c2fe"/><polygon points="1746.88,470.31 1746.88,537.5 1679.69,537.5" fill="#b7d7ff"/><rect x="1746.88" y="403.13" width="134.38" height="134.38" fill="#d5e8ff"/><polygon points="1746.88,403.13 1881.2600000000002,403.13 1881.2600000000002,537.51" fill="#e9f3ff"/><rect x="1881.25" y="403.13" width="134.38" height="134.38" fill="#e7f2ff"/><polygon points="1881.25,403.13 2015.63,403.13 2015.63,537.51" fill="#8ec1fe"/><rect x="2015.625" y="403.125" width="134.375" height="134.375" fill="#ffffff"/><rect x="2015.63" y="403.13" width="67.19" height="67.19" fill="#e2efff"/><polygon points="2082.82,403.13 2082.82,470.32 2015.63,470.32" fill="#bbd9ff"/><rect x="2082.81" y="403.13" width="67.19" height="67.19" fill="#c3deff"/><polygon points="2150,403.13 2150,470.32 2082.81,470.32" fill="#e8f2ff"/><rect x="2015.63" y="470.31" width="67.19" height="67.19" fill="#ecf4ff"/><polygon points="2015.63,470.31 2082.82,470.31 2082.82,537.5" fill="#c4dfff"/><rect x="2082.81" y="470.31" width="67.19" height="67.19" fill="#d6e9ff"/><polygon points="2150,470.31 2150,537.5 2082.81,537.5" fill="#fefeff"/><rect x="0" y="537.5" width="134.38" height="134.38" fill="#f1f7ff"/><polygon points="0,537.5 134.38,537.5 134.38,671.88" fill="#c4deff"/><rect x="134.375" y="537.5" width="134.375" height="134.375" fill="#ffffff"/><rect x="134.38" y="537.5" width="67.19" height="67.19" fill="#5ba4fe"/><polygon points="134.38,537.5 201.57,537.5 134.38,604.69" fill="#a9cfff"/><rect x="201.56" y="537.5" width="67.19" height="67.19" fill="#499afe"/><polygon points="201.56,537.5 268.75,604.69 201.56,604.69" fill="#4d9dfe"/><rect x="134.38" y="604.69" width="67.19" height="67.19" fill="#4f9dfe"/><polygon points="134.38,604.69 201.57,671.8800000000001 134.38,671.8800000000001" fill="#dcecff"/><rect x="201.56" y="604.69" width="67.19" height="67.19" fill="#eef6ff"/><polygon points="201.56,604.69 268.75,671.8800000000001 201.56,671.8800000000001" fill="#e7f2ff"/><rect x="268.75" y="537.5" width="134.375" height="134.375" fill="#ffffff"/><rect x="268.75" y="537.5" width="67.19" height="67.19" fill="#e7f2ff"/><polygon points="268.75,537.5 335.94,537.5 268.75,604.69" fill="#ffffff"/><rect x="335.94" y="537.5" width="67.19" height="67.19" fill="#63a9fe"/><polygon points="335.94,537.5 403.13,537.5 335.94,604.69" fill="#78b4fe"/><rect x="268.75" y="604.69" width="67.19" height="67.19" fill="#88bdfe"/><polygon points="335.94,604.69 335.94,671.8800000000001 268.75,671.8800000000001" fill="#f1f7ff"/><rect x="335.94" y="604.69" width="67.19" height="67.19" fill="#90c1fe"/><polygon points="403.13,604.69 403.13,671.8800000000001 335.94,671.8800000000001" fill="#5ba4fe"/><rect x="403.125" y="537.5" width="134.375" height="134.375" fill="#ffffff"/><rect x="403.13" y="537.5" width="67.19" height="67.19" fill="#cae2ff"/><polygon points="470.32,537.5 470.32,604.69 403.13,604.69" fill="#4699fe"/><rect x="470.31" y="537.5" width="67.19" height="67.19" fill="#fdfeff"/><polygon points="470.31,537.5 537.5,604.69 470.31,604.69" fill="#c1ddff"/><rect x="403.13" y="604.69" width="67.19" height="67.19" fill="#dfedff"/><polygon points="403.13,604.69 470.32,671.8800000000001 403.13,671.8800000000001" fill="#f4f9ff"/><rect x="470.31" y="604.69" width="67.19" height="67.19" fill="#6fb0fe"/><polygon points="470.31,604.69 537.5,604.69 537.5,671.8800000000001" fill="#b0d3ff"/><rect x="537.5" y="537.5" width="134.38" height="134.38" fill="#daebff"/><polygon points="537.5,537.5 671.88,537.5 671.88,671.88" fill="#abd1ff"/><rect x="671.875" y="537.5" width="134.375" height="134.375" fill="#ffffff"/><rect x="671.88" y="537.5" width="67.19" height="67.19" fill="#5aa4fe"/><polygon points="671.88,537.5 739.0699999999999,537.5 739.0699999999999,604.69" fill="#4a9bfe"/><rect x="739.06" y="537.5" width="67.19" height="67.19" fill="#ebf4ff"/><polygon points="739.06,537.5 806.25,604.69 739.06,604.69" fill="#fafcff"/><rect x="671.88" y="604.69" width="67.19" height="67.19" fill="#ebf4ff"/><polygon points="671.88,604.69 739.0699999999999,671.8800000000001 671.88,671.8800000000001" fill="#68abfe"/><rect x="739.06" y="604.69" width="67.19" height="67.19" fill="#75b3fe"/><polygon points="739.06,604.69 806.25,604.69 806.25,671.8800000000001" fill="#c5dfff"/><rect x="806.25" y="537.5" width="134.38" height="134.38" fill="#edf5ff"/><polygon points="940.63,537.5 940.63,671.88 806.25,671.88" fill="#62a8fe"/><rect x="940.625" y="537.5" width="134.375" height="134.375" fill="#ffffff"/><rect x="940.63" y="537.5" width="67.19" height="67.19" fill="#8dc0fe"/><polygon points="940.63,537.5 1007.8199999999999,537.5 1007.8199999999999,604.69" fill="#5fa6fe"/><rect x="1007.81" y="537.5" width="67.19" height="67.19" fill="#dbebff"/><polygon points="1075,537.5 1075,604.69 1007.81,604.69" fill="#fefeff"/><rect x="940.63" y="604.69" width="67.19" height="67.19" fill="#b1d4ff"/><polygon points="940.63,604.69 1007.8199999999999,671.8800000000001 940.63,671.8800000000001" fill="#5fa7fe"/><rect x="1007.81" y="604.69" width="67.19" height="67.19" fill="#abd0ff"/><polygon points="1075,604.69 1075,671.8800000000001 1007.81,671.8800000000001" fill="#59a3fe"/><rect x="1075" y="537.5" width="134.38" height="134.38" fill="#63a8fe"/><polygon points="1209.38,537.5 1209.38,671.88 1075,671.88" fill="#c9e1ff"/><rect x="1209.375" y="537.5" width="134.375" height="134.375" fill="#ffffff"/><rect x="1209.38" y="537.5" width="67.19" height="67.19" fill="#64a9fe"/><polygon points="1276.5700000000002,537.5 1276.5700000000002,604.69 1209.38,604.69" fill="#5ba4fe"/><rect x="1276.56" y="537.5" width="67.19" height="67.19" fill="#bcdaff"/><polygon points="1276.56,537.5 1343.75,537.5 1276.56,604.69" fill="#5da6fe"/><rect x="1209.38" y="604.69" width="67.19" height="67.19" fill="#97c5fe"/><polygon points="1209.38,604.69 1276.5700000000002,604.69 1209.38,671.8800000000001" fill="#a1cbfe"/><rect x="1276.56" y="604.69" width="67.19" height="67.19" fill="#daebff"/><polygon points="1276.56,604.69 1343.75,604.69 1276.56,671.8800000000001" fill="#d4e7ff"/><rect x="1343.75" y="537.5" width="134.38" height="134.38" fill="#f2f8ff"/><polygon points="1343.75,537.5 1478.13,537.5 1478.13,671.88" fill="#8bbffe"/><rect x="1478.125" y="537.5" width="134.375" height="134.375" fill="#ffffff"/><rect x="1478.13" y="537.5" width="67.19" height="67.19" fill="#b4d5ff"/><polygon points="1478.13,537.5 1545.3200000000002,604.69 1478.13,604.69" fill="#e3efff"/><rect x="1545.31" y="537.5" width="67.19" height="67.19" fill="#9ec9fe"/><polygon points="1612.5,537.5 1612.5,604.69 1545.31,604.69" fill="#90c2fe"/><rect x="1478.13" y="604.69" width="67.19" height="67.19" fill="#e1efff"/><polygon points="1478.13,604.69 1545.3200000000002,671.8800000000001 1478.13,671.8800000000001" fill="#b4d6ff"/><rect x="1545.31" y="604.69" width="67.19" height="67.19" fill="#499afe"/><polygon points="1545.31,604.69 1612.5,604.69 1545.31,671.8800000000001" fill="#8dc0fe"/><rect x="1612.5" y="537.5" width="134.38" height="134.38" fill="#ddecff"/><polygon points="1746.88,537.5 1746.88,671.88 1612.5,671.88" fill="#a2ccff"/><rect x="1746.875" y="537.5" width="134.375" height="134.375" fill="#ffffff"/><rect x="1746.88" y="537.5" width="67.19" height="67.19" fill="#71b0fe"/><polygon points="1814.0700000000002,537.5 1814.0700000000002,604.69 1746.88,604.69" fill="#c1ddff"/><rect x="1814.06" y="537.5" width="67.19" height="67.19" fill="#69acfe"/><polygon points="1814.06,537.5 1881.25,604.69 1814.06,604.69" fill="#96c5fe"/><rect x="1746.88" y="604.69" width="67.19" height="67.19" fill="#fafcff"/><polygon points="1746.88,604.69 1814.0700000000002,671.8800000000001 1746.88,671.8800000000001" fill="#9cc8fe"/><rect x="1814.06" y="604.69" width="67.19" height="67.19" fill="#b9d9ff"/><polygon points="1814.06,604.69 1881.25,671.8800000000001 1814.06,671.8800000000001" fill="#d9eaff"/><rect x="1881.25" y="537.5" width="134.38" height="134.38" fill="#74b2fe"/><polygon points="1881.25,537.5 2015.63,537.5 2015.63,671.88" fill="#f2f8ff"/><rect x="2015.625" y="537.5" width="134.375" height="134.375" fill="#ffffff"/><rect x="2015.63" y="537.5" width="67.19" height="67.19" fill="#c5dfff"/><polygon points="2015.63,537.5 2082.82,537.5 2015.63,604.69" fill="#eff6ff"/><rect x="2082.81" y="537.5" width="67.19" height="67.19" fill="#bad9ff"/><polygon points="2082.81,537.5 2150,537.5 2082.81,604.69" fill="#79b5fe"/><rect x="2015.63" y="604.69" width="67.19" height="67.19" fill="#8dc0fe"/><polygon points="2082.82,604.69 2082.82,671.8800000000001 2015.63,671.8800000000001" fill="#f1f7ff"/><rect x="2082.81" y="604.69" width="67.19" height="67.19" fill="#b0d3ff"/><polygon points="2150,604.69 2150,671.8800000000001 2082.81,671.8800000000001" fill="#c0dcff"/></g></svg>