<?xml version="1.0" encoding="UTF-8"?>
<svg id="Layer_2" data-name="Layer 2" xmlns="http://www.w3.org/2000/svg" viewBox="0 0 1750.02 1050">
  <defs>
    <style>
      .cls-1 {
        fill: #f3f3f3;
      }

      .cls-1, .cls-2, .cls-3, .cls-4, .cls-5, .cls-6, .cls-7, .cls-8, .cls-9, .cls-10, .cls-11, .cls-12, .cls-13, .cls-14, .cls-15, .cls-16, .cls-17, .cls-18, .cls-19, .cls-20, .cls-21, .cls-22, .cls-23, .cls-24, .cls-25, .cls-26, .cls-27, .cls-28, .cls-29, .cls-30, .cls-31, .cls-32, .cls-33, .cls-34, .cls-35, .cls-36, .cls-37, .cls-38, .cls-39, .cls-40, .cls-41, .cls-42, .cls-43, .cls-44, .cls-45, .cls-46, .cls-47, .cls-48, .cls-49, .cls-50, .cls-51, .cls-52, .cls-53, .cls-54, .cls-55, .cls-56, .cls-57, .cls-58, .cls-59, .cls-60, .cls-61 {
        stroke-width: 0px;
      }

      .cls-2 {
        fill: #f7f7f7;
      }

      .cls-3 {
        fill: #f9f9f9;
      }

      .cls-4 {
        fill: #c3c3c3;
      }

      .cls-5 {
        fill: #d1d1d1;
      }

      .cls-6 {
        fill: #d2d2d2;
      }

      .cls-7 {
        fill: #ddd;
      }

      .cls-8 {
        fill: #c7c7c7;
      }

      .cls-9 {
        fill: #c9c9c9;
      }

      .cls-10 {
        fill: #cacaca;
      }

      .cls-11 {
        fill: #ccc;
      }

      .cls-12 {
        fill: #afafaf;
      }

      .cls-13 {
        fill: #adadad;
      }

      .cls-14 {
        fill: #d7d7d7;
      }

      .cls-15 {
        fill: #c6c6c6;
      }

      .cls-16 {
        fill: #e1e1e1;
      }

      .cls-17 {
        fill: #d5d5d5;
      }

      .cls-18 {
        fill: #d6d6d6;
      }

      .cls-19 {
        fill: #dbdbdb;
      }

      .cls-20 {
        fill: #dadada;
      }

      .cls-21 {
        fill: #d9d9d9;
      }

      .cls-22 {
        fill: #bbb;
      }

      .cls-23 {
        fill: #a4a4a4;
      }

      .cls-24 {
        fill: silver;
      }

      .cls-25 {
        fill: #ababab;
      }

      .cls-26 {
        fill: #bdbdbd;
      }

      .cls-27 {
        fill: #b2b2b2;
      }

      .cls-28 {
        fill: #a5a5a5;
      }

      .cls-29 {
        fill: #d8d8d8;
      }

      .cls-30 {
        fill: #b0b0b0;
      }

      .cls-31 {
        fill: #b1b1b1;
      }

      .cls-32 {
        fill: #a7a7a7;
      }

      .cls-33 {
        fill: #bcbcbc;
      }

      .cls-34 {
        fill: #acacac;
      }

      .cls-35 {
        fill: #b7b7b7;
      }

      .cls-36 {
        fill: #9e9e9e;
      }

      .cls-37 {
        fill: #b9b9b9;
      }

      .cls-38 {
        fill: #c2c2c2;
      }

      .cls-39 {
        fill: #b3b3b3;
      }

      .cls-40 {
        fill: #b6b6b6;
      }

      .cls-41 {
        fill: #c1c1c1;
      }

      .cls-42 {
        fill: #bababa;
      }

      .cls-43 {
        fill: #a1a1a1;
      }

      .cls-44 {
        fill: #9c9c9c;
      }

      .cls-45 {
        fill: #a0a0a0;
      }

      .cls-46 {
        fill: #fdfdfd;
      }

      .cls-47 {
        fill: #f1f1f1;
      }

      .cls-48 {
        fill: #fff;
      }

      .cls-49 {
        fill: #ededed;
      }

      .cls-50 {
        fill: #e8e8e8;
      }

      .cls-51 {
        fill: #e2e2e2;
      }

      .cls-52 {
        fill: #fafafa;
      }

      .cls-53 {
        fill: #e5e5e5;
      }

      .cls-54 {
        fill: #fbfbfb;
      }

      .cls-55 {
        fill: #fefefe;
      }

      .cls-56 {
        fill: #eee;
      }

      .cls-57 {
        fill: #ebebeb;
      }

      .cls-58 {
        fill: #f0f0f0;
      }

      .cls-59 {
        fill: #fcfcfc;
      }

      .cls-60 {
        fill: #e7e7e7;
      }

      .cls-61 {
        fill: #f4f4f4;
      }
    </style>
  </defs>
  <g id="Layer_1-2" data-name="Layer 1">
    <g>
      <path class="cls-25" d="M1100.01,0h40.68s-11.88,11.88-11.88,11.88l21.2,21.2-16.92,16.92-21.2-21.2-11.89,11.89V0Z"/>
      <path class="cls-56" d="M900.02,0h40.68s-11.88,11.88-11.88,11.88l21.2,21.2-16.92,16.92-21.2-21.2-11.89,11.89V0Z"/>
      <path class="cls-5" d="M600.02,0h40.68s-11.88,11.88-11.88,11.88l21.2,21.2-16.92,16.92-21.2-21.2-11.89,11.89V0Z"/>
      <path class="cls-19" d="M200.01,0h40.68s-11.88,11.88-11.88,11.88l21.2,21.2-16.92,16.92-21.2-21.2-11.89,11.89V0Z"/>
      <path class="cls-6" d="M0,0h40.68s-11.88,11.88-11.88,11.88l21.2,21.2-16.92,16.92L11.89,28.8,0,40.69V0Z"/>
      <path class="cls-44" d="M1600.02,100h40.68s-11.88,11.88-11.88,11.88l21.2,21.2-16.92,16.92-21.2-21.2-11.89,11.89v-40.68Z"/>
      <path class="cls-26" d="M1500.02,100h40.68s-11.88,11.88-11.88,11.88l21.2,21.2-16.92,16.92-21.2-21.2-11.89,11.89v-40.68Z"/>
      <path class="cls-49" d="M1400.02,100h40.68s-11.88,11.88-11.88,11.88l21.2,21.2-16.92,16.92-21.2-21.2-11.89,11.89v-40.68Z"/>
      <path class="cls-13" d="M1300.02,100h40.68s-11.88,11.88-11.88,11.88l21.2,21.2-16.92,16.92-21.2-21.2-11.89,11.89v-40.68Z"/>
      <path class="cls-7" d="M800.01,100h40.68s-11.88,11.88-11.88,11.88l21.2,21.2-16.92,16.92-21.2-21.2-11.89,11.89v-40.68Z"/>
      <path class="cls-51" d="M500.01,100h40.68s-11.88,11.88-11.88,11.88l21.2,21.2-16.92,16.92-21.2-21.2-11.89,11.89v-40.68Z"/>
      <path class="cls-42" d="M400.01,100h40.68s-11.88,11.88-11.88,11.88l21.2,21.2-16.92,16.92-21.2-21.2-11.89,11.89v-40.68Z"/>
      <path class="cls-12" d="M1700.02,200h40.68s-11.88,11.88-11.88,11.88l21.2,21.2-16.92,16.92-21.2-21.2-11.89,11.89v-40.68Z"/>
      <path class="cls-21" d="M1300.02,200h40.68s-11.88,11.88-11.88,11.88l21.2,21.2-16.92,16.92-21.2-21.2-11.89,11.89v-40.68Z"/>
      <path class="cls-24" d="M1200.02,200h40.68s-11.88,11.88-11.88,11.88l21.2,21.2-16.92,16.92-21.2-21.2-11.89,11.89v-40.68Z"/>
      <path class="cls-53" d="M900.02,200h40.68s-11.88,11.88-11.88,11.88l21.2,21.2-16.92,16.92-21.2-21.2-11.89,11.89v-40.68Z"/>
      <path class="cls-44" d="M800.01,200h40.68s-11.88,11.88-11.88,11.88l21.2,21.2-16.92,16.92-21.2-21.2-11.89,11.89v-40.68Z"/>
      <path class="cls-14" d="M700.01,200h40.68s-11.88,11.88-11.88,11.88l21.2,21.2-16.92,16.92-21.2-21.2-11.89,11.89v-40.68Z"/>
      <path class="cls-28" d="M500.01,200h40.68s-11.88,11.88-11.88,11.88l21.2,21.2-16.92,16.92-21.2-21.2-11.89,11.89v-40.68Z"/>
      <path class="cls-49" d="M400.01,200h40.68s-11.88,11.88-11.88,11.88l21.2,21.2-16.92,16.92-21.2-21.2-11.89,11.89v-40.68Z"/>
      <path class="cls-29" d="M300.01,200h40.68s-11.88,11.88-11.88,11.88l21.2,21.2-16.92,16.92-21.2-21.2-11.89,11.89v-40.68Z"/>
      <path class="cls-2" d="M200.01,200h40.68s-11.88,11.88-11.88,11.88l21.2,21.2-16.92,16.92-21.2-21.2-11.89,11.89v-40.68Z"/>
      <path class="cls-22" d="M1700.02,300.01h40.68s-11.88,11.88-11.88,11.88l21.2,21.2-16.92,16.92-21.2-21.2-11.89,11.89v-40.68Z"/>
      <path class="cls-31" d="M1400.02,300.01h40.68s-11.88,11.88-11.88,11.88l21.2,21.2-16.92,16.92-21.2-21.2-11.89,11.89v-40.68Z"/>
      <path class="cls-1" d="M1200.02,300.01h40.68s-11.88,11.88-11.88,11.88l21.2,21.2-16.92,16.92-21.2-21.2-11.89,11.89v-40.68Z"/>
      <path class="cls-29" d="M1100.01,300.01h40.68s-11.88,11.88-11.88,11.88l21.2,21.2-16.92,16.92-21.2-21.2-11.89,11.89v-40.68Z"/>
      <path class="cls-11" d="M1000.01,300.01h40.68s-11.88,11.88-11.88,11.88l21.2,21.2-16.92,16.92-21.2-21.2-11.89,11.89v-40.68Z"/>
      <path class="cls-54" d="M900.02,300.01h40.68s-11.88,11.88-11.88,11.88l21.2,21.2-16.92,16.92-21.2-21.2-11.89,11.89v-40.68Z"/>
      <path class="cls-47" d="M800.01,300.01h40.68s-11.88,11.88-11.88,11.88l21.2,21.2-16.92,16.92-21.2-21.2-11.89,11.89v-40.68Z"/>
      <path class="cls-52" d="M700.01,300.01h40.68s-11.88,11.88-11.88,11.88l21.2,21.2-16.92,16.92-21.2-21.2-11.89,11.89v-40.68Z"/>
      <path class="cls-57" d="M600.02,300.01h40.68s-11.88,11.88-11.88,11.88l21.2,21.2-16.92,16.92-21.2-21.2-11.89,11.89v-40.68Z"/>
      <path class="cls-43" d="M500.01,300.01h40.68s-11.88,11.88-11.88,11.88l21.2,21.2-16.92,16.92-21.2-21.2-11.89,11.89v-40.68Z"/>
      <path class="cls-8" d="M400.01,300.01h40.68s-11.88,11.88-11.88,11.88l21.2,21.2-16.92,16.92-21.2-21.2-11.89,11.89v-40.68Z"/>
      <path class="cls-12" d="M200.01,300.01h40.68s-11.88,11.88-11.88,11.88l21.2,21.2-16.92,16.92-21.2-21.2-11.89,11.89v-40.68Z"/>
      <path class="cls-54" d="M1700.02,400h40.68s-11.88,11.88-11.88,11.88l21.2,21.2-16.92,16.92-21.2-21.2-11.89,11.89v-40.68Z"/>
      <path class="cls-50" d="M1400.02,400h40.68s-11.88,11.88-11.88,11.88l21.2,21.2-16.92,16.92-21.2-21.2-11.89,11.89v-40.68Z"/>
      <path class="cls-12" d="M1200.02,400h40.68s-11.88,11.88-11.88,11.88l21.2,21.2-16.92,16.92-21.2-21.2-11.89,11.89v-40.68Z"/>
      <path class="cls-27" d="M1100.01,400h40.68s-11.88,11.88-11.88,11.88l21.2,21.2-16.92,16.92-21.2-21.2-11.89,11.89v-40.68Z"/>
      <path class="cls-39" d="M1000.01,400h40.68s-11.88,11.88-11.88,11.88l21.2,21.2-16.92,16.92-21.2-21.2-11.89,11.89v-40.68Z"/>
      <path class="cls-47" d="M900.02,400h40.68s-11.88,11.88-11.88,11.88l21.2,21.2-16.92,16.92-21.2-21.2-11.89,11.89v-40.68Z"/>
      <path class="cls-55" d="M800.01,400h40.68s-11.88,11.88-11.88,11.88l21.2,21.2-16.92,16.92-21.2-21.2-11.89,11.89v-40.68Z"/>
      <path class="cls-45" d="M700.01,400h40.68s-11.88,11.88-11.88,11.88l21.2,21.2-16.92,16.92-21.2-21.2-11.89,11.89v-40.68Z"/>
      <path class="cls-16" d="M600.02,400h40.68s-11.88,11.88-11.88,11.88l21.2,21.2-16.92,16.92-21.2-21.2-11.89,11.89v-40.68Z"/>
      <path class="cls-20" d="M500.01,400h40.68s-11.88,11.88-11.88,11.88l21.2,21.2-16.92,16.92-21.2-21.2-11.89,11.89v-40.68Z"/>
      <path class="cls-23" d="M300.01,400h40.68s-11.88,11.88-11.88,11.88l21.2,21.2-16.92,16.92-21.2-21.2-11.89,11.89v-40.68Z"/>
      <path class="cls-10" d="M1400.02,500.01h40.68s-11.88,11.88-11.88,11.88l21.2,21.2-16.92,16.92-21.2-21.2-11.89,11.89v-40.68Z"/>
      <path class="cls-3" d="M1300.02,500.01h40.68s-11.88,11.88-11.88,11.88l21.2,21.2-16.92,16.92-21.2-21.2-11.89,11.89v-40.68Z"/>
      <path class="cls-53" d="M1100.01,500.01h40.68s-11.88,11.88-11.88,11.88l21.2,21.2-16.92,16.92-21.2-21.2-11.89,11.89v-40.68Z"/>
      <path class="cls-17" d="M1000.01,500.01h40.68s-11.88,11.88-11.88,11.88l21.2,21.2-16.92,16.92-21.2-21.2-11.89,11.89v-40.68Z"/>
      <path class="cls-4" d="M900.02,500.01h40.68s-11.88,11.88-11.88,11.88l21.2,21.2-16.92,16.92-21.2-21.2-11.89,11.89v-40.68Z"/>
      <path class="cls-27" d="M800.01,500.01h40.68s-11.88,11.88-11.88,11.88l21.2,21.2-16.92,16.92-21.2-21.2-11.89,11.89v-40.68Z"/>
      <path class="cls-36" d="M700.01,500.01h40.68s-11.88,11.88-11.88,11.88l21.2,21.2-16.92,16.92-21.2-21.2-11.89,11.89v-40.68Z"/>
      <path class="cls-36" d="M600.02,500.01h40.68s-11.88,11.88-11.88,11.88l21.2,21.2-16.92,16.92-21.2-21.2-11.89,11.89v-40.68Z"/>
      <path class="cls-53" d="M500.01,500.01h40.68s-11.88,11.88-11.88,11.88l21.2,21.2-16.92,16.92-21.2-21.2-11.89,11.89v-40.68Z"/>
      <path class="cls-7" d="M400.01,500.01h40.68s-11.88,11.88-11.88,11.88l21.2,21.2-16.92,16.92-21.2-21.2-11.89,11.89v-40.68Z"/>
      <path class="cls-18" d="M300.01,500.01h40.68s-11.88,11.88-11.88,11.88l21.2,21.2-16.92,16.92-21.2-21.2-11.89,11.89v-40.68Z"/>
      <path class="cls-57" d="M200.01,500.01h40.68s-11.88,11.88-11.88,11.88l21.2,21.2-16.92,16.92-21.2-21.2-11.89,11.89v-40.68Z"/>
      <path class="cls-33" d="M1700.02,600.01h40.68s-11.88,11.88-11.88,11.88l21.2,21.2-16.92,16.92-21.2-21.2-11.89,11.89v-40.68Z"/>
      <path class="cls-8" d="M1300.02,600.01h40.68s-11.88,11.88-11.88,11.88l21.2,21.2-16.92,16.92-21.2-21.2-11.89,11.89v-40.68Z"/>
      <path class="cls-32" d="M1200.02,600.01h40.68s-11.88,11.88-11.88,11.88l21.2,21.2-16.92,16.92-21.2-21.2-11.89,11.89v-40.68Z"/>
      <path class="cls-46" d="M1000.01,600.01h40.68s-11.88,11.88-11.88,11.88l21.2,21.2-16.92,16.92-21.2-21.2-11.89,11.89v-40.68Z"/>
      <path class="cls-51" d="M900.02,600.01h40.68s-11.88,11.88-11.88,11.88l21.2,21.2-16.92,16.92-21.2-21.2-11.89,11.89v-40.68Z"/>
      <path class="cls-41" d="M800.01,600.01h40.68s-11.88,11.88-11.88,11.88l21.2,21.2-16.92,16.92-21.2-21.2-11.89,11.89v-40.68Z"/>
      <path class="cls-35" d="M700.01,600.01h40.68s-11.88,11.88-11.88,11.88l21.2,21.2-16.92,16.92-21.2-21.2-11.89,11.89v-40.68Z"/>
      <path class="cls-58" d="M600.02,600.01h40.68s-11.88,11.88-11.88,11.88l21.2,21.2-16.92,16.92-21.2-21.2-11.89,11.89v-40.68Z"/>
      <path class="cls-34" d="M500.01,600.01h40.68s-11.88,11.88-11.88,11.88l21.2,21.2-16.92,16.92-21.2-21.2-11.89,11.89v-40.68Z"/>
      <path class="cls-40" d="M400.01,600.01h40.68s-11.88,11.88-11.88,11.88l21.2,21.2-16.92,16.92-21.2-21.2-11.89,11.89v-40.68Z"/>
      <path class="cls-58" d="M300.01,600.01h40.68s-11.88,11.88-11.88,11.88l21.2,21.2-16.92,16.92-21.2-21.2-11.89,11.89v-40.68Z"/>
      <path class="cls-59" d="M200.01,600.01h40.68s-11.88,11.88-11.88,11.88l21.2,21.2-16.92,16.92-21.2-21.2-11.89,11.89v-40.68Z"/>
      <path class="cls-47" d="M0,600.01h40.68s-11.88,11.88-11.88,11.88l21.2,21.2-16.92,16.92-21.2-21.2-11.89,11.89v-40.68Z"/>
      <path class="cls-37" d="M1200.02,700h40.68s-11.88,11.88-11.88,11.88l21.2,21.2-16.92,16.92-21.2-21.2-11.89,11.89v-40.68Z"/>
      <path class="cls-37" d="M1000.01,700h40.68s-11.88,11.88-11.88,11.88l21.2,21.2-16.92,16.92-21.2-21.2-11.89,11.89v-40.68Z"/>
      <path class="cls-61" d="M800.01,700h40.68s-11.88,11.88-11.88,11.88l21.2,21.2-16.92,16.92-21.2-21.2-11.89,11.89v-40.68Z"/>
      <path class="cls-48" d="M700.01,700h40.68s-11.88,11.88-11.88,11.88l21.2,21.2-16.92,16.92-21.2-21.2-11.89,11.89v-40.68Z"/>
      <path class="cls-14" d="M600.02,700h40.68s-11.88,11.88-11.88,11.88l21.2,21.2-16.92,16.92-21.2-21.2-11.89,11.89v-40.68Z"/>
      <path class="cls-15" d="M500.01,700h40.68s-11.88,11.88-11.88,11.88l21.2,21.2-16.92,16.92-21.2-21.2-11.89,11.89v-40.68Z"/>
      <path class="cls-20" d="M400.01,700h40.68s-11.88,11.88-11.88,11.88l21.2,21.2-16.92,16.92-21.2-21.2-11.89,11.89v-40.68Z"/>
      <path class="cls-38" d="M300.01,700h40.68s-11.88,11.88-11.88,11.88l21.2,21.2-16.92,16.92-21.2-21.2-11.89,11.89v-40.68Z"/>
      <path class="cls-60" d="M1500.02,800.01h40.68s-11.88,11.88-11.88,11.88l21.2,21.2-16.92,16.92-21.2-21.2-11.89,11.89v-40.68Z"/>
      <path class="cls-30" d="M1300.02,800.01h40.68s-11.88,11.88-11.88,11.88l21.2,21.2-16.92,16.92-21.2-21.2-11.89,11.89v-40.68Z"/>
      <path class="cls-30" d="M1100.01,800.01h40.68s-11.88,11.88-11.88,11.88l21.2,21.2-16.92,16.92-21.2-21.2-11.89,11.89v-40.68Z"/>
      <path class="cls-53" d="M1000.01,800.01h40.68s-11.88,11.88-11.88,11.88l21.2,21.2-16.92,16.92-21.2-21.2-11.89,11.89v-40.68Z"/>
      <path class="cls-37" d="M700.01,800.01h40.68s-11.88,11.88-11.88,11.88l21.2,21.2-16.92,16.92-21.2-21.2-11.89,11.89v-40.68Z"/>
      <path class="cls-21" d="M500.01,800.01h40.68s-11.88,11.88-11.88,11.88l21.2,21.2-16.92,16.92-21.2-21.2-11.89,11.89v-40.68Z"/>
      <path class="cls-38" d="M100.01,800.01h40.68s-11.88,11.88-11.88,11.88l21.2,21.2-16.92,16.92-21.2-21.2-11.89,11.89v-40.68Z"/>
      <path class="cls-52" d="M1100.01,900.01h40.68s-11.88,11.88-11.88,11.88l21.2,21.2-16.92,16.92-21.2-21.2-11.89,11.89v-40.68Z"/>
      <path class="cls-21" d="M1000.01,900.01h40.68s-11.88,11.88-11.88,11.88l21.2,21.2-16.92,16.92-21.2-21.2-11.89,11.89v-40.68Z"/>
      <path class="cls-22" d="M900.02,900.01h40.68s-11.88,11.88-11.88,11.88l21.2,21.2-16.92,16.92-21.2-21.2-11.89,11.89v-40.68Z"/>
      <path class="cls-27" d="M800.01,900.01h40.68s-11.88,11.88-11.88,11.88l21.2,21.2-16.92,16.92-21.2-21.2-11.89,11.89v-40.68Z"/>
      <path class="cls-30" d="M500.01,900.01h40.68s-11.88,11.88-11.88,11.88l21.2,21.2-16.92,16.92-21.2-21.2-11.89,11.89v-40.68Z"/>
      <path class="cls-1" d="M100.01,900.01h40.68s-11.88,11.88-11.88,11.88l21.2,21.2-16.92,16.92-21.2-21.2-11.89,11.89v-40.68Z"/>
      <path class="cls-9" d="M1300.02,1000h40.68s-11.88,11.88-11.88,11.88l21.2,21.2-16.92,16.92-21.2-21.2-11.89,11.89v-40.68Z"/>
    </g>
  </g>
</svg>