<?xml version="1.0" encoding="UTF-8"?>
<svg id="Layer_2" data-name="Layer 2" xmlns="http://www.w3.org/2000/svg" version="1.1" viewBox="0 0 1750 1050">
  <defs>
    <style>
      .cls-1 {
        fill: #d6d6d6;
      }

      .cls-1, .cls-2, .cls-3, .cls-4, .cls-5, .cls-6, .cls-7, .cls-8, .cls-9, .cls-10, .cls-11, .cls-12, .cls-13, .cls-14, .cls-15, .cls-16, .cls-17, .cls-18, .cls-19, .cls-20, .cls-21, .cls-22, .cls-23, .cls-24, .cls-25, .cls-26, .cls-27, .cls-28, .cls-29, .cls-30, .cls-31, .cls-32, .cls-33, .cls-34, .cls-35, .cls-36, .cls-37, .cls-38, .cls-39, .cls-40, .cls-41, .cls-42, .cls-43, .cls-44, .cls-45, .cls-46, .cls-47, .cls-48, .cls-49, .cls-50, .cls-51, .cls-52, .cls-53, .cls-54, .cls-55, .cls-56, .cls-57, .cls-58, .cls-59, .cls-60, .cls-61 {
        stroke-width: 0px;
      }

      .cls-2 {
        fill: #d2d2d2;
      }

      .cls-3 {
        fill: #c2c2c2;
      }

      .cls-4 {
        fill: #b7b7b7;
      }

      .cls-5 {
        fill: #b3b3b3;
      }

      .cls-6 {
        fill: #eee;
      }

      .cls-7 {
        fill: #c1c1c1;
      }

      .cls-8 {
        fill: #bababa;
      }

      .cls-9 {
        fill: #c9c9c9;
      }

      .cls-10 {
        fill: #ebebeb;
      }

      .cls-11 {
        fill: #fdfdfd;
      }

      .cls-12 {
        fill: #acacac;
      }

      .cls-13 {
        fill: #cacaca;
      }

      .cls-14 {
        fill: #bbb;
      }

      .cls-15 {
        fill: #afafaf;
      }

      .cls-16 {
        fill: #b9b9b9;
      }

      .cls-17 {
        fill: #d8d8d8;
      }

      .cls-18 {
        fill: #d7d7d7;
      }

      .cls-19 {
        fill: #fafafa;
      }

      .cls-20 {
        fill: #f3f3f3;
      }

      .cls-21 {
        fill: silver;
      }

      .cls-22 {
        fill: #c3c3c3;
      }

      .cls-23 {
        fill: #f4f4f4;
      }

      .cls-24 {
        fill: #b6b6b6;
      }

      .cls-25 {
        fill: #c7c7c7;
      }

      .cls-26 {
        fill: #9e9e9e;
      }

      .cls-27 {
        fill: #a5a5a5;
      }

      .cls-28 {
        fill: #a1a1a1;
      }

      .cls-29 {
        fill: #a0a0a0;
      }

      .cls-30 {
        fill: #d1d1d1;
      }

      .cls-31 {
        fill: #fbfbfb;
      }

      .cls-32 {
        fill: #ababab;
      }

      .cls-33 {
        fill: #f0f0f0;
      }

      .cls-34 {
        fill: #ddd;
      }

      .cls-35 {
        fill: #ededed;
      }

      .cls-36 {
        fill: #b2b2b2;
      }

      .cls-37 {
        fill: #a7a7a7;
      }

      .cls-38 {
        fill: #dbdbdb;
      }

      .cls-39 {
        fill: #e8e8e8;
      }

      .cls-62 {
        opacity: .2;
      }

      .cls-40 {
        fill: #e1e1e1;
      }

      .cls-41 {
        fill: #a4a4a4;
      }

      .cls-42 {
        fill: #9c9c9c;
      }

      .cls-43 {
        fill: #bcbcbc;
      }

      .cls-44 {
        fill: #fefefe;
      }

      .cls-45 {
        fill: #e2e2e2;
      }

      .cls-46 {
        fill: #d9d9d9;
      }

      .cls-47 {
        fill: #f9f9f9;
      }

      .cls-48 {
        fill: #bdbdbd;
      }

      .cls-49 {
        fill: #c6c6c6;
      }

      .cls-50 {
        fill: #ccc;
      }

      .cls-51 {
        fill: #fff;
      }

      .cls-52 {
        fill: #b1b1b1;
      }

      .cls-53 {
        fill: #adadad;
      }

      .cls-54 {
        fill: #f1f1f1;
      }

      .cls-55 {
        fill: #dadada;
      }

      .cls-56 {
        fill: #d5d5d5;
      }

      .cls-57 {
        fill: #b0b0b0;
      }

      .cls-58 {
        fill: #e5e5e5;
      }

      .cls-59 {
        fill: #e7e7e7;
      }

      .cls-60 {
        fill: #f7f7f7;
      }

      .cls-61 {
        fill: #fcfcfc;
      }
    </style>
  </defs>
  <g id="Layer_1-2" data-name="Layer 1-2" class="cls-62">
    <g>
      <path class="cls-32" d="M650,0h-40.7l11.9,11.9-21.2,21.2,16.9,16.9,21.2-21.2,11.9,11.9V0h0Z"/>
      <path class="cls-6" d="M850,0h-40.7l11.9,11.9-21.2,21.2,16.9,16.9,21.2-21.2,11.9,11.9V0h0Z"/>
      <path class="cls-30" d="M1150,0h-40.7l11.9,11.9-21.2,21.2,16.9,16.9,21.2-21.2,11.9,11.9V0h0Z"/>
      <path class="cls-38" d="M1550,0h-40.7l11.9,11.9-21.2,21.2,16.9,16.9,21.2-21.2,11.9,11.9V0h0Z"/>
      <path class="cls-2" d="M1750,0h-40.7l11.9,11.9-21.2,21.2,16.9,16.9,21.2-21.2,11.9,11.9V0Z"/>
      <path class="cls-42" d="M150,100h-40.7l11.9,11.9-21.2,21.2,16.9,16.9,21.2-21.2,11.9,11.9v-40.7h0Z"/>
      <path class="cls-48" d="M250,100h-40.7l11.9,11.9-21.2,21.2,16.9,16.9,21.2-21.2,11.9,11.9v-40.7h0Z"/>
      <path class="cls-35" d="M350,100h-40.7l11.9,11.9-21.2,21.2,16.9,16.9,21.2-21.2,11.9,11.9v-40.7h0Z"/>
      <path class="cls-53" d="M450,100h-40.7l11.9,11.9-21.2,21.2,16.9,16.9,21.2-21.2,11.9,11.9v-40.7h0Z"/>
      <path class="cls-34" d="M950,100h-40.7l11.9,11.9-21.2,21.2,16.9,16.9,21.2-21.2,11.9,11.9v-40.7h0Z"/>
      <path class="cls-45" d="M1250,100h-40.7l11.9,11.9-21.2,21.2,16.9,16.9,21.2-21.2,11.9,11.9v-40.7h0Z"/>
      <path class="cls-8" d="M1350,100h-40.7l11.9,11.9-21.2,21.2,16.9,16.9,21.2-21.2,11.9,11.9v-40.7h0Z"/>
      <path class="cls-15" d="M50,200H9.3l11.9,11.9L0,233.1l16.9,16.9,21.2-21.2,11.9,11.9v-40.7h0Z"/>
      <path class="cls-46" d="M450,200h-40.7l11.9,11.9-21.2,21.2,16.9,16.9,21.2-21.2,11.9,11.9v-40.7h0Z"/>
      <path class="cls-21" d="M550,200h-40.7l11.9,11.9-21.2,21.2,16.9,16.9,21.2-21.2,11.9,11.9v-40.7h0Z"/>
      <path class="cls-58" d="M850,200h-40.7l11.9,11.9-21.2,21.2,16.9,16.9,21.2-21.2,11.9,11.9v-40.7h0Z"/>
      <path class="cls-42" d="M950,200h-40.7l11.9,11.9-21.2,21.2,16.9,16.9,21.2-21.2,11.9,11.9v-40.7h0Z"/>
      <path class="cls-18" d="M1050,200h-40.7l11.9,11.9-21.2,21.2,16.9,16.9,21.2-21.2,11.9,11.9v-40.7h0Z"/>
      <path class="cls-27" d="M1250,200h-40.7l11.9,11.9-21.2,21.2,16.9,16.9,21.2-21.2,11.9,11.9v-40.7h0Z"/>
      <path class="cls-35" d="M1350,200h-40.7l11.9,11.9-21.2,21.2,16.9,16.9,21.2-21.2,11.9,11.9v-40.7h0Z"/>
      <path class="cls-17" d="M1450,200h-40.7l11.9,11.9-21.2,21.2,16.9,16.9,21.2-21.2,11.9,11.9v-40.7h0Z"/>
      <path class="cls-60" d="M1550,200h-40.7l11.9,11.9-21.2,21.2,16.9,16.9,21.2-21.2,11.9,11.9v-40.7h0Z"/>
      <path class="cls-14" d="M50,300H9.3l11.9,11.9L0,333.1l16.9,16.9,21.2-21.2,11.9,11.9v-40.7h0Z"/>
      <path class="cls-52" d="M350,300h-40.7l11.9,11.9-21.2,21.2,16.9,16.9,21.2-21.2,11.9,11.9v-40.7h0Z"/>
      <path class="cls-20" d="M550,300h-40.7l11.9,11.9-21.2,21.2,16.9,16.9,21.2-21.2,11.9,11.9v-40.7h0Z"/>
      <path class="cls-17" d="M650,300h-40.7l11.9,11.9-21.2,21.2,16.9,16.9,21.2-21.2,11.9,11.9v-40.7h0Z"/>
      <path class="cls-50" d="M750,300h-40.7l11.9,11.9-21.2,21.2,16.9,16.9,21.2-21.2,11.9,11.9v-40.7h0Z"/>
      <path class="cls-31" d="M850,300h-40.7l11.9,11.9-21.2,21.2,16.9,16.9,21.2-21.2,11.9,11.9v-40.7h0Z"/>
      <path class="cls-54" d="M950,300h-40.7l11.9,11.9-21.2,21.2,16.9,16.9,21.2-21.2,11.9,11.9v-40.7h0Z"/>
      <path class="cls-19" d="M1050,300h-40.7l11.9,11.9-21.2,21.2,16.9,16.9,21.2-21.2,11.9,11.9v-40.7h0Z"/>
      <path class="cls-10" d="M1150,300h-40.7l11.9,11.9-21.2,21.2,16.9,16.9,21.2-21.2,11.9,11.9v-40.7h0Z"/>
      <path class="cls-28" d="M1250,300h-40.7l11.9,11.9-21.2,21.2,16.9,16.9,21.2-21.2,11.9,11.9v-40.7h0Z"/>
      <path class="cls-25" d="M1350,300h-40.7l11.9,11.9-21.2,21.2,16.9,16.9,21.2-21.2,11.9,11.9v-40.7h0Z"/>
      <path class="cls-15" d="M1550,300h-40.7l11.9,11.9-21.2,21.2,16.9,16.9,21.2-21.2,11.9,11.9v-40.7h0Z"/>
      <path class="cls-31" d="M50,400H9.3l11.9,11.9L0,433.1l16.9,16.9,21.2-21.2,11.9,11.9v-40.7h0Z"/>
      <path class="cls-39" d="M350,400h-40.7l11.9,11.9-21.2,21.2,16.9,16.9,21.2-21.2,11.9,11.9v-40.7h0Z"/>
      <path class="cls-15" d="M550,400h-40.7l11.9,11.9-21.2,21.2,16.9,16.9,21.2-21.2,11.9,11.9v-40.7h0Z"/>
      <path class="cls-36" d="M650,400h-40.7l11.9,11.9-21.2,21.2,16.9,16.9,21.2-21.2,11.9,11.9v-40.7h0Z"/>
      <path class="cls-5" d="M750,400h-40.7l11.9,11.9-21.2,21.2,16.9,16.9,21.2-21.2,11.9,11.9v-40.7h0Z"/>
      <path class="cls-54" d="M850,400h-40.7l11.9,11.9-21.2,21.2,16.9,16.9,21.2-21.2,11.9,11.9v-40.7h0Z"/>
      <path class="cls-44" d="M950,400h-40.7l11.9,11.9-21.2,21.2,16.9,16.9,21.2-21.2,11.9,11.9v-40.7h0Z"/>
      <path class="cls-29" d="M1050,400h-40.7l11.9,11.9-21.2,21.2,16.9,16.9,21.2-21.2,11.9,11.9v-40.7h0Z"/>
      <path class="cls-40" d="M1150,400h-40.7l11.9,11.9-21.2,21.2,16.9,16.9,21.2-21.2,11.9,11.9v-40.7h0Z"/>
      <path class="cls-55" d="M1250,400h-40.7l11.9,11.9-21.2,21.2,16.9,16.9,21.2-21.2,11.9,11.9v-40.7h0Z"/>
      <path class="cls-41" d="M1450,400h-40.7l11.9,11.9-21.2,21.2,16.9,16.9,21.2-21.2,11.9,11.9v-40.7h0Z"/>
      <path class="cls-13" d="M350,500h-40.7l11.9,11.9-21.2,21.2,16.9,16.9,21.2-21.2,11.9,11.9v-40.7h0Z"/>
      <path class="cls-47" d="M450,500h-40.7l11.9,11.9-21.2,21.2,16.9,16.9,21.2-21.2,11.9,11.9v-40.7h0Z"/>
      <path class="cls-58" d="M650,500h-40.7l11.9,11.9-21.2,21.2,16.9,16.9,21.2-21.2,11.9,11.9v-40.7h0Z"/>
      <path class="cls-56" d="M750,500h-40.7l11.9,11.9-21.2,21.2,16.9,16.9,21.2-21.2,11.9,11.9v-40.7h0Z"/>
      <path class="cls-22" d="M850,500h-40.7l11.9,11.9-21.2,21.2,16.9,16.9,21.2-21.2,11.9,11.9v-40.7h0Z"/>
      <path class="cls-36" d="M950,500h-40.7l11.9,11.9-21.2,21.2,16.9,16.9,21.2-21.2,11.9,11.9v-40.7h0Z"/>
      <path class="cls-26" d="M1050,500h-40.7l11.9,11.9-21.2,21.2,16.9,16.9,21.2-21.2,11.9,11.9v-40.7h0Z"/>
      <path class="cls-26" d="M1150,500h-40.7l11.9,11.9-21.2,21.2,16.9,16.9,21.2-21.2,11.9,11.9v-40.7h0Z"/>
      <path class="cls-58" d="M1250,500h-40.7l11.9,11.9-21.2,21.2,16.9,16.9,21.2-21.2,11.9,11.9v-40.7h0Z"/>
      <path class="cls-34" d="M1350,500h-40.7l11.9,11.9-21.2,21.2,16.9,16.9,21.2-21.2,11.9,11.9v-40.7h0Z"/>
      <path class="cls-1" d="M1450,500h-40.7l11.9,11.9-21.2,21.2,16.9,16.9,21.2-21.2,11.9,11.9v-40.7h0Z"/>
      <path class="cls-10" d="M1550,500h-40.7l11.9,11.9-21.2,21.2,16.9,16.9,21.2-21.2,11.9,11.9v-40.7h0Z"/>
      <path class="cls-43" d="M50,600H9.3l11.9,11.9L0,633.1l16.9,16.9,21.2-21.2,11.9,11.9v-40.7h0Z"/>
      <path class="cls-25" d="M450,600h-40.7l11.9,11.9-21.2,21.2,16.9,16.9,21.2-21.2,11.9,11.9v-40.7h0Z"/>
      <path class="cls-37" d="M550,600h-40.7l11.9,11.9-21.2,21.2,16.9,16.9,21.2-21.2,11.9,11.9v-40.7h0Z"/>
      <path class="cls-11" d="M750,600h-40.7l11.9,11.9-21.2,21.2,16.9,16.9,21.2-21.2,11.9,11.9v-40.7h0Z"/>
      <path class="cls-45" d="M850,600h-40.7l11.9,11.9-21.2,21.2,16.9,16.9,21.2-21.2,11.9,11.9v-40.7h0Z"/>
      <path class="cls-7" d="M950,600h-40.7l11.9,11.9-21.2,21.2,16.9,16.9,21.2-21.2,11.9,11.9v-40.7h0Z"/>
      <path class="cls-4" d="M1050,600h-40.7l11.9,11.9-21.2,21.2,16.9,16.9,21.2-21.2,11.9,11.9v-40.7h0Z"/>
      <path class="cls-33" d="M1150,600h-40.7l11.9,11.9-21.2,21.2,16.9,16.9,21.2-21.2,11.9,11.9v-40.7h0Z"/>
      <path class="cls-12" d="M1250,600h-40.7l11.9,11.9-21.2,21.2,16.9,16.9,21.2-21.2,11.9,11.9v-40.7h0Z"/>
      <path class="cls-24" d="M1350,600h-40.7l11.9,11.9-21.2,21.2,16.9,16.9,21.2-21.2,11.9,11.9v-40.7h0Z"/>
      <path class="cls-33" d="M1450,600h-40.7l11.9,11.9-21.2,21.2,16.9,16.9,21.2-21.2,11.9,11.9v-40.7h0Z"/>
      <path class="cls-61" d="M1550,600h-40.7l11.9,11.9-21.2,21.2,16.9,16.9,21.2-21.2,11.9,11.9v-40.7h0Z"/>
      <path class="cls-54" d="M1750,600h-40.7l11.9,11.9-21.2,21.2,16.9,16.9,21.2-21.2,11.9,11.9v-40.7h0Z"/>
      <path class="cls-16" d="M550,700h-40.7l11.9,11.9-21.2,21.2,16.9,16.9,21.2-21.2,11.9,11.9v-40.7h0Z"/>
      <path class="cls-16" d="M750,700h-40.7l11.9,11.9-21.2,21.2,16.9,16.9,21.2-21.2,11.9,11.9v-40.7h0Z"/>
      <path class="cls-23" d="M950,700h-40.7l11.9,11.9-21.2,21.2,16.9,16.9,21.2-21.2,11.9,11.9v-40.7h0Z"/>
      <path class="cls-51" d="M1050,700h-40.7l11.9,11.9-21.2,21.2,16.9,16.9,21.2-21.2,11.9,11.9v-40.7h0Z"/>
      <path class="cls-18" d="M1150,700h-40.7l11.9,11.9-21.2,21.2,16.9,16.9,21.2-21.2,11.9,11.9v-40.7h0Z"/>
      <path class="cls-49" d="M1250,700h-40.7l11.9,11.9-21.2,21.2,16.9,16.9,21.2-21.2,11.9,11.9v-40.7h0Z"/>
      <path class="cls-55" d="M1350,700h-40.7l11.9,11.9-21.2,21.2,16.9,16.9,21.2-21.2,11.9,11.9v-40.7h0Z"/>
      <path class="cls-3" d="M1450,700h-40.7l11.9,11.9-21.2,21.2,16.9,16.9,21.2-21.2,11.9,11.9v-40.7h0Z"/>
      <path class="cls-59" d="M250,800h-40.7l11.9,11.9-21.2,21.2,16.9,16.9,21.2-21.2,11.9,11.9v-40.7h0Z"/>
      <path class="cls-57" d="M450,800h-40.7l11.9,11.9-21.2,21.2,16.9,16.9,21.2-21.2,11.9,11.9v-40.7h0Z"/>
      <path class="cls-57" d="M650,800h-40.7l11.9,11.9-21.2,21.2,16.9,16.9,21.2-21.2,11.9,11.9v-40.7h0Z"/>
      <path class="cls-58" d="M750,800h-40.7l11.9,11.9-21.2,21.2,16.9,16.9,21.2-21.2,11.9,11.9v-40.7h0Z"/>
      <path class="cls-16" d="M1050,800h-40.7l11.9,11.9-21.2,21.2,16.9,16.9,21.2-21.2,11.9,11.9v-40.7h0Z"/>
      <path class="cls-46" d="M1250,800h-40.7l11.9,11.9-21.2,21.2,16.9,16.9,21.2-21.2,11.9,11.9v-40.7h0Z"/>
      <path class="cls-3" d="M1650,800h-40.7l11.9,11.9-21.2,21.2,16.9,16.9,21.2-21.2,11.9,11.9v-40.7h0Z"/>
      <path class="cls-19" d="M650,900h-40.7l11.9,11.9-21.2,21.2,16.9,16.9,21.2-21.2,11.9,11.9v-40.7h0Z"/>
      <path class="cls-46" d="M750,900h-40.7l11.9,11.9-21.2,21.2,16.9,16.9,21.2-21.2,11.9,11.9v-40.7h0Z"/>
      <path class="cls-14" d="M850,900h-40.7l11.9,11.9-21.2,21.2,16.9,16.9,21.2-21.2,11.9,11.9v-40.7h0Z"/>
      <path class="cls-36" d="M950,900h-40.7l11.9,11.9-21.2,21.2,16.9,16.9,21.2-21.2,11.9,11.9v-40.7h0Z"/>
      <path class="cls-57" d="M1250,900h-40.7l11.9,11.9-21.2,21.2,16.9,16.9,21.2-21.2,11.9,11.9v-40.7h0Z"/>
      <path class="cls-20" d="M1650,900h-40.7l11.9,11.9-21.2,21.2,16.9,16.9,21.2-21.2,11.9,11.9v-40.7h0Z"/>
      <path class="cls-9" d="M450,1000h-40.7l11.9,11.9-21.2,21.2,16.9,16.9,21.2-21.2,11.9,11.9v-40.7h0Z"/>
    </g>
  </g>
</svg>