<?xml version="1.0" encoding="UTF-8"?>
<svg id="Layer_1" data-name="Layer 1" xmlns="http://www.w3.org/2000/svg" version="1.1" viewBox="0 0 2028.3 1036.7">
  <defs>
    <style>
      .cls-1 {
        fill: #899df0;
      }

      .cls-1, .cls-2, .cls-3, .cls-4, .cls-5, .cls-6, .cls-7, .cls-8, .cls-9, .cls-10, .cls-11, .cls-12, .cls-13, .cls-14, .cls-15, .cls-16, .cls-17, .cls-18, .cls-19, .cls-20, .cls-21, .cls-22, .cls-23, .cls-24, .cls-25, .cls-26, .cls-27, .cls-28 {
        opacity: 0;
        stroke-width: 0px;
      }

      .cls-2 {
        fill: #a5b4f3;
      }

      .cls-3 {
        fill: #8bafe7;
      }

      .cls-4 {
        fill: #748bed;
      }

      .cls-5 {
        fill: #d4dbf9;
      }

      .cls-6 {
        fill: #97a8f1;
      }

      .cls-7 {
        fill: #a7b6f4;
      }

      .cls-8 {
        fill: #5571e9;
      }

      .cls-9 {
        fill: #4781d9;
      }

      .cls-10 {
        fill: #d2daf9;
      }

      .cls-11 {
        fill: #6c85ec;
      }

      .cls-12 {
        fill: #5874e9;
      }

      .cls-13 {
        fill: #2e51e4;
      }

      .cls-14 {
        fill: #e5edfa;
      }

      .cls-15 {
        fill: #8ca0f0;
      }

      .cls-16 {
        fill: #aac5ed;
      }

      .cls-17 {
        fill: #a5b5f3;
      }

      .cls-18 {
        fill: #657feb;
      }

      .cls-19 {
        fill: #9bacf2;
      }

      .cls-20 {
        fill: #3f7bd7;
      }

      .cls-21 {
        fill: #9cadf2;
      }

      .cls-22 {
        fill: #5f7aea;
      }

      .cls-23 {
        fill: #3c5de6;
      }

      .cls-24 {
        fill: #5e79ea;
      }

      .cls-25 {
        fill: #3355e4;
      }

      .cls-26 {
        fill: #9dbceb;
      }

      .cls-27 {
        fill: #6e9ce1;
      }

      .cls-28 {
        fill: #9cbbeb;
      }
    </style>
  </defs>
  <path class="cls-8" d="M1217.5,0h-18.3l5.4,5.4-9.6,9.6,7.6,7.6,9.6-9.6,5.4,5.4V0h0Z"/>
  <path class="cls-27" d="M1217.5,22.8h-18.3l5.4,5.4-9.6,9.6,7.6,7.6,9.6-9.6,5.4,5.4v-18.3h0Z"/>
  <path class="cls-12" d="M134.5,91.4h-36.7l10.7,10.7-19.1,19.1,15.2,15.2,19.1-19.1,10.7,10.7v-36.7h0Z"/>
  <path class="cls-14" d="M494.3,91.4h-36.7l10.7,10.7-19.1,19.1,15.2,15.2,19.1-19.1,10.7,10.7v-36.7h0Z"/>
  <path class="cls-3" d="M1666.7,91.4h-36.7l10.7,10.7-19.1,19.1,15.2,15.2,19.1-19.1,10.7,10.7v-36.7h0Z"/>
  <path class="cls-1" d="M1577.2,180.8h-36.7l10.7,10.7-19.1,19.1,15.2,15.2,19.1-19.1,10.7,10.7v-36.7h0Z"/>
  <path class="cls-19" d="M1938.8,180.8h-36.7l10.7,10.7-19.1,19.1,15.2,15.2,19.1-19.1,10.7,10.7v-36.7h0Z"/>
  <path class="cls-24" d="M2028.3,180.8h-36.7l10.7,10.7-19.1,19.1,15.2,15.2,19.1-19.1,10.7,10.7v-36.7h0Z"/>
  <path class="cls-22" d="M404.8,270.3h-36.7l10.7,10.7-19.1,19.1,15.2,15.2,19.1-19.1,10.7,10.7v-36.7h0Z"/>
  <path class="cls-20" d="M494.3,361.6h-36.7l10.7,10.7-19.1,19.1,15.2,15.2,19.1-19.1,10.7,10.7v-36.7h0Z"/>
  <path class="cls-26" d="M1396.4,361.6h-18.3l5.4,5.4-9.6,9.6,7.6,7.6,9.6-9.6,5.4,5.4v-18.3h0Z"/>
  <path class="cls-2" d="M585.6,542.4h-36.7l10.7,10.7-19.1,19.1,15.2,15.2,19.1-19.1,10.7,10.7v-36.7h0Z"/>
  <path class="cls-28" d="M945.3,542.4h-36.7l10.7,10.7-19.1,19.1,15.2,15.2,19.1-19.1,10.7,10.7v-36.7h0Z"/>
  <path class="cls-17" d="M1217.5,542.4h-36.7l10.7,10.7-19.1,19.1,15.2,15.2,19.1-19.1,10.7,10.7v-36.7h0Z"/>
  <path class="cls-7" d="M1306.9,563.4h-18.3l5.4,5.4-9.6,9.6,7.6,7.6,9.6-9.6,5.4,5.4v-18.3h0Z"/>
  <path class="cls-10" d="M404.8,631.9h-36.7l10.7,10.7-19.1,19.1,15.2,15.2,19.1-19.1,10.7,10.7v-36.7h0Z"/>
  <path class="cls-5" d="M675.1,631.9h-18.3l5.4,5.4-9.6,9.6,7.6,7.6,9.6-9.6,5.4,5.4v-18.3h0Z"/>
  <path class="cls-16" d="M1306.9,631.9h-36.7l10.7,10.7-19.1,19.1,15.2,15.2,19.1-19.1,10.7,10.7v-36.7h0Z"/>
  <path class="cls-18" d="M1577.2,631.9h-36.7l10.7,10.7-19.1,19.1,15.2,15.2,19.1-19.1,10.7,10.7v-36.7h0Z"/>
  <path class="cls-13" d="M45.1,721.3H8.4l10.7,10.7L0,751.2l15.2,15.2,19.1-19.1,10.7,10.7v-36.7h0Z"/>
  <path class="cls-23" d="M675.1,721.3h-18.3l5.4,5.4-9.6,9.6,7.6,7.6,9.6-9.6,5.4,5.4v-18.3h0Z"/>
  <path class="cls-15" d="M766.4,721.3h-36.7l10.7,10.7-19.1,19.1,15.2,15.2,19.1-19.1,10.7,10.7v-36.7h0Z"/>
  <path class="cls-25" d="M224,812.7h-36.7l10.7,10.7-19.1,19.1,15.2,15.2,19.1-19.1,10.7,10.7v-36.7h0Z"/>
  <path class="cls-21" d="M585.6,812.7h-36.7l10.7,10.7-19.1,19.1,15.2,15.2,19.1-19.1,10.7,10.7v-36.7h0Z"/>
  <path class="cls-11" d="M1126.1,812.7h-18.3l5.4,5.4-9.6,9.6,7.6,7.6,9.6-9.6,5.4,5.4v-18.3h0Z"/>
  <path class="cls-4" d="M855.9,902.2h-36.7l10.7,10.7-19.1,19.1,15.2,15.2,19.1-19.1,10.7,10.7v-36.7h0Z"/>
  <path class="cls-6" d="M1373.6,902.2h-18.3l5.4,5.4-9.6,9.6,7.6,7.6,9.6-9.6,5.4,5.4v-18.3h0Z"/>
  <path class="cls-9" d="M1036.7,991.6h-36.7l10.7,10.7-19.1,19.1,15.2,15.2,19.1-19.1,10.7,10.7v-36.7h0Z"/>
</svg>